<svg width="244" height="148" viewBox="0 0 244 148" fill="none" xmlns="http://www.w3.org/2000/svg">
<g clip-path="url(#clip0_426_284)">
<rect x="2" y="2" width="240" height="144" fill="white"/>
<path d="M242.514 2.85749C242.988 2.57334 243.142 1.95908 242.857 1.4855C242.573 1.01192 241.959 0.858359 241.486 1.14251L242 2L242.514 2.85749ZM1.4855 145.143C1.01192 145.427 0.858359 146.041 1.14251 146.514C1.42666 146.988 2.04092 147.142 2.5145 146.857L2 146L1.4855 145.143ZM2.5145 1.14251C2.04092 0.858359 1.42666 1.01192 1.14251 1.4855C0.858359 1.95908 1.01192 2.57334 1.4855 2.85749L2 2L2.5145 1.14251ZM241.486 146.857C241.959 147.142 242.573 146.988 242.857 146.514C243.142 146.041 242.988 145.427 242.514 145.143L242 146L241.486 146.857ZM242 2L241.486 1.14251L1.4855 145.143L2 146L2.5145 146.857L242.514 2.85749L242 2ZM2 2L1.4855 2.85749L241.486 146.857L242 146L242.514 145.143L2.5145 1.14251L2 2Z" fill="#BBBBBB"/>
</g>
<rect x="1" y="1" width="242" height="146" stroke="#BBBBBB" stroke-width="2" stroke-linejoin="round"/>
<defs>
<clipPath id="clip0_426_284">
<rect x="2" y="2" width="240" height="144" fill="white"/>
</clipPath>
</defs>
</svg>
