<svg width="152" height="67" viewBox="0 0 152 67" fill="none" xmlns="http://www.w3.org/2000/svg">
<mask id="mask0_1_3" style="mask-type:luminance" maskUnits="userSpaceOnUse" x="0" y="0" width="152" height="67">
<path d="M1.005 5.99922C1.005 3.2378 3.24358 0.999222 6.005 0.999222H146.392C149.153 0.999222 151.392 3.2378 151.392 5.99922V61C151.392 63.7614 149.153 66 146.392 66H6.005C3.24358 66 1.005 63.7614 1.005 61V5.99922Z" fill="white" stroke="white" stroke-miterlimit="4.13936" stroke-linejoin="round"/>
</mask>
<g mask="url(#mask0_1_3)">
<mask id="mask1_1_3" style="mask-type:luminance" maskUnits="userSpaceOnUse" x="0" y="0" width="152" height="67">
<path d="M5.47375 0.999222H146.821C148.005 0.999222 149.142 1.46775 149.982 2.3072C150.818 3.14275 151.29 4.27893 151.29 5.46588V61.5333C151.29 62.7164 150.818 63.8526 149.982 64.692C149.142 65.5276 148.005 66 146.821 66H5.47375C3.005 66 1.005 64.0009 1.005 61.5333V5.46588C1.005 2.99828 3.005 0.999222 5.47375 0.999222Z" fill="white" stroke="white" stroke-miterlimit="4.13936" stroke-linejoin="round" />
</mask>
<g mask="url(#mask1_1_3)">
<path d="M1.005 5.99922C1.005 3.2378 3.24358 0.999222 6.005 0.999222H146.392C149.153 0.999222 151.392 3.2378 151.392 5.99922V61C151.392 63.7614 149.153 66 146.392 66H6.005C3.24358 66 1.005 63.7614 1.005 61V5.99922Z" fill="white" stroke="black" stroke-miterlimit="4.13936" stroke-linejoin="round" stroke-width="2"/>
</g>
</g>
<path d="M11.1361 37.233V10.9953H16.8392L25.1986 27.6438L33.4486 10.9953H39.1517V37.233H34.3549V19.1321L27.0424 33.4848H23.2455L15.933 19.1321V37.233H11.1361Z" fill="#000080"/>
<path d="M48.4747 37.6859C46.881 37.6859 45.5685 37.4282 44.5372 36.9207C43.5138 36.4014 42.756 35.7181 42.256 34.8747C41.756 34.0236 41.506 33.0865 41.506 32.0636C41.506 30.3378 42.1778 28.9361 43.5216 27.8624C44.8731 26.7926 46.9005 26.2538 49.5997 26.2538H54.3341V25.8009C54.3341 24.5319 53.9669 23.5949 53.2403 22.9897C52.5216 22.3884 51.6192 22.0839 50.5372 22.0839C49.5685 22.0839 48.7169 22.3181 47.9903 22.7867C47.2716 23.2474 46.8224 23.9268 46.6466 24.8326H41.9591C42.0841 23.4817 42.5372 22.3025 43.3185 21.303C44.1075 20.3035 45.131 19.5382 46.381 19.0072C47.631 18.4684 49.0294 18.1951 50.5841 18.1951C53.2286 18.1951 55.3106 18.8588 56.8341 20.1785C58.3653 21.5021 59.131 23.3762 59.131 25.8009V37.233H55.0372L54.5997 34.2344C54.045 35.234 53.2755 36.0617 52.2872 36.7176C51.295 37.3619 50.0255 37.6859 48.4747 37.6859ZM49.5685 33.9377C50.9435 33.9377 52.0099 33.4926 52.7716 32.5946C53.5294 31.6887 54.0138 30.576 54.2247 29.2524H50.131C48.8575 29.2524 47.9474 29.4867 47.3966 29.9552C46.8419 30.4159 46.5685 30.9781 46.5685 31.6419C46.5685 32.372 46.8419 32.9382 47.3966 33.3442C47.9474 33.7425 48.67 33.9377 49.5685 33.9377Z" fill="#000080"/>
<path d="M61.638 37.233V18.648H65.8723L66.2473 21.7871C66.8176 20.6939 67.6458 19.8271 68.7317 19.179C69.8255 18.523 71.1106 18.1951 72.5911 18.1951C74.8919 18.1951 76.677 18.9213 77.9505 20.3659C79.22 21.8145 79.8567 23.9385 79.8567 26.7379V37.233H75.0598V27.1909C75.0598 25.59 74.7317 24.3641 74.0755 23.5207C73.427 22.6695 72.4192 22.24 71.0442 22.24C69.7005 22.24 68.595 22.7164 67.7317 23.6613C66.8645 24.61 66.4348 25.9375 66.4348 27.6438V37.233H61.638Z" fill="#000080"/>
<path d="M84.6978 45.4792L89.0103 35.9992H87.8853L80.6509 18.648H85.854L91.0728 31.72L96.5103 18.648H101.604L89.7915 45.4792H84.6978Z" fill="#000080"/>
<path d="M111.611 37.6859C109.806 37.6859 108.189 37.2721 106.751 36.4521C105.314 35.6205 104.177 34.4765 103.345 33.0162C102.509 31.5599 102.095 29.8693 102.095 27.9405C102.095 26.0156 102.517 24.325 103.361 22.8648C104.212 21.3967 105.361 20.2527 106.798 19.4289C108.236 18.6089 109.853 18.1951 111.658 18.1951C113.427 18.1951 115.033 18.6089 116.47 19.4289C117.908 20.2527 119.041 21.3967 119.876 22.8648C120.72 24.325 121.142 26.0156 121.142 27.9405C121.142 29.8693 120.72 31.5599 119.876 33.0162C119.041 34.4765 117.9 35.6205 116.455 36.4521C115.005 37.2721 113.392 37.6859 111.611 37.6859ZM111.611 33.516C112.861 33.516 113.947 33.0475 114.876 32.1104C115.802 31.1734 116.267 29.7834 116.267 27.9405C116.267 26.0898 115.802 24.692 114.876 23.755C113.947 22.8179 112.876 22.3494 111.658 22.3494C110.376 22.3494 109.275 22.8179 108.361 23.755C107.455 24.692 107.001 26.0898 107.001 27.9405C107.001 29.7834 107.455 31.1734 108.361 32.1104C109.275 33.0475 110.361 33.516 111.611 33.516Z" fill="#000080"/>
<path d="M131.221 31.6887C130.322 31.6887 129.486 31.5911 128.705 31.392L127.314 32.7664C127.74 32.9967 128.314 33.188 129.033 33.3442C129.76 33.4926 130.939 33.637 132.564 33.7815C135.041 34.0119 136.846 34.6014 137.971 35.5463C139.096 36.4951 139.658 37.8031 139.658 39.482C139.658 40.583 139.354 41.6255 138.752 42.6055C138.158 43.5933 137.236 44.3937 135.986 45.0106C134.736 45.6236 133.135 45.9321 131.189 45.9321C128.533 45.9321 126.393 45.4362 124.768 44.4484C123.143 43.4567 122.33 41.9808 122.33 40.013C122.33 38.3341 123.143 36.8855 124.768 35.6556C124.268 35.437 123.834 35.2027 123.471 34.9528C123.115 34.703 122.799 34.4375 122.518 34.1563V33.2974L125.783 29.8459C124.334 28.5769 123.611 26.941 123.611 24.9419C123.611 23.6925 123.912 22.5602 124.518 21.5373C125.131 20.5065 126.002 19.6944 127.127 19.1009C128.252 18.4996 129.615 18.1951 131.221 18.1951C132.271 18.1951 133.244 18.3473 134.143 18.648H141.189V21.5685L138.002 21.7871C138.502 22.7359 138.752 23.7862 138.752 24.9419C138.752 26.1913 138.447 27.3314 137.846 28.3622C137.252 29.3851 136.385 30.1973 135.252 30.7985C134.115 31.392 132.771 31.6887 131.221 31.6887ZM131.221 28.0186C132.197 28.0186 133.006 27.7609 133.643 27.2377C134.275 26.7067 134.596 25.9532 134.596 24.9731C134.596 24.0048 134.275 23.263 133.643 22.7398C133.006 22.2088 132.197 21.9433 131.221 21.9433C130.197 21.9433 129.377 22.2088 128.752 22.7398C128.127 23.263 127.814 24.0048 127.814 24.9731C127.814 25.9532 128.127 26.7067 128.752 27.2377C129.377 27.7609 130.197 28.0186 131.221 28.0186ZM126.721 39.5132C126.721 40.4385 127.15 41.1296 128.018 41.5904C128.881 42.0589 129.939 42.2931 131.189 42.2931C132.385 42.2931 133.361 42.0472 134.111 41.5591C134.861 41.0672 135.236 40.4112 135.236 39.5913C135.236 38.9119 134.99 38.3497 134.502 37.9046C134.01 37.4556 133.041 37.1823 131.596 37.0768C130.572 37.0066 129.627 36.8972 128.752 36.7489C128.021 37.1471 127.502 37.5766 127.189 38.0451C126.877 38.5215 126.721 39.0134 126.721 39.5132Z" fill="#000080"/>
<path d="M42.3973 12.5387L141.397 12.5387" stroke="#FBBC05" stroke-width="2.97973"/>
<path d="M74.7146 52.0359C74.6209 52.0476 74.5467 52.0281 74.4959 51.9734C74.4529 51.9109 74.4412 51.825 74.4646 51.7079C74.4725 51.6064 74.4998 51.5283 74.5428 51.4736C74.5936 51.4112 74.6561 51.3799 74.7303 51.3799C75.2615 51.3409 75.7381 51.2355 76.1678 51.0676C76.5936 50.9036 76.9568 50.6888 77.2615 50.4272C77.574 50.1696 77.8084 49.8728 77.9646 49.537C78.1287 49.2052 78.2146 48.8577 78.2146 48.4907C78.2146 48.2095 78.1443 47.9987 78.0115 47.8503C77.8865 47.7059 77.699 47.6317 77.449 47.6317C77.2303 47.6317 76.9998 47.6902 76.7615 47.8035C76.5193 47.9089 76.2811 48.069 76.0428 48.2876C75.8006 48.4985 75.5662 48.7483 75.3396 49.0373C75.1209 49.3184 74.91 49.6386 74.7146 49.99C74.5154 50.3453 74.3475 50.7201 74.2146 51.1144L72.9803 54.9251C72.9568 54.9993 72.91 55.0501 72.8396 55.0813C72.7771 55.1204 72.6873 55.1438 72.574 55.1438C72.4568 55.1438 72.3709 55.1204 72.3084 55.0813C72.2459 55.0501 72.2303 54.9954 72.2615 54.9095L74.324 48.5844C74.1873 48.721 74.0467 48.8499 73.9021 48.9748C73.7537 49.0919 73.5975 49.2091 73.4334 49.334C73.2654 49.4511 73.0936 49.5683 72.9178 49.6932C72.8006 49.7791 72.7068 49.8025 72.6365 49.7713C72.5623 49.7401 72.4998 49.6776 72.449 49.5839C72.3943 49.5019 72.3748 49.4238 72.3865 49.3496C72.3943 49.2676 72.449 49.2013 72.5428 49.1466C72.8553 48.9514 73.1443 48.7522 73.4178 48.5531C73.6873 48.3462 73.9334 48.1314 74.1521 47.9128C74.3709 47.6863 74.5623 47.4443 74.7303 47.1944C74.7928 47.1007 74.8475 47.0382 74.9021 47.007C74.9646 46.9757 75.0506 46.9601 75.1678 46.9601C75.2811 46.9601 75.3631 46.9835 75.4178 47.0226C75.4803 47.0538 75.4959 47.1163 75.4646 47.21L75.0584 48.5219C75.2967 48.19 75.5506 47.9089 75.824 47.6785C76.0936 47.4404 76.3748 47.2647 76.6678 47.1475C76.9568 47.0226 77.2498 46.9601 77.5428 46.9601C77.824 46.9601 78.0662 47.0226 78.2771 47.1475C78.4959 47.2647 78.6561 47.4247 78.7615 47.6317C78.8748 47.8425 78.9334 48.0924 78.9334 48.3813C78.9334 48.8811 78.8279 49.3457 78.6209 49.7713C78.41 50.2008 78.1131 50.5795 77.7303 50.9114C77.3553 51.2355 76.9061 51.4971 76.3865 51.6923C75.8748 51.8914 75.3162 52.0046 74.7146 52.0359Z" fill="#000080"/>
<path d="M75.9154 55.175C75.8138 55.175 75.7435 55.1438 75.7123 55.0813C75.681 55.0188 75.6771 54.9525 75.6967 54.8783C75.7084 54.7963 75.7435 54.7221 75.806 54.6596C75.8685 54.5972 75.9545 54.5659 76.056 54.5659C76.2357 54.5659 76.4271 54.5152 76.6342 54.4098C76.8334 54.2965 77.0482 54.1208 77.2748 53.8788C77.5013 53.6406 77.7435 53.3282 77.9935 52.9417C78.2513 52.5591 78.5287 52.0905 78.8217 51.5361L79.2592 51.7547C78.9349 52.3912 78.6342 52.9261 78.3529 53.3634C78.0717 53.8007 77.7943 54.156 77.5248 54.4254C77.267 54.687 77.0053 54.8783 76.7435 55.0032C76.474 55.1165 76.1967 55.175 75.9154 55.175ZM80.3685 55.1594C80.181 55.1594 80.0326 55.1165 79.931 55.0345C79.8373 54.9642 79.7787 54.8705 79.7592 54.7533C79.7357 54.6284 79.7357 54.5035 79.7592 54.3785C79.7787 54.2536 79.8099 54.1403 79.8529 54.0349C79.8842 53.9529 79.931 53.8319 79.9935 53.6757C80.056 53.5195 80.1224 53.3478 80.1967 53.1603C80.267 52.9651 80.3412 52.7699 80.4154 52.5825C80.4857 52.3873 80.5482 52.2077 80.6029 52.0515C80.642 51.8953 80.6498 51.786 80.6185 51.7235C80.5951 51.661 80.5287 51.6298 80.4154 51.6298C80.2982 51.6298 80.1693 51.6571 80.0248 51.7079C79.8881 51.7626 79.7474 51.8133 79.6029 51.8641C79.4545 51.907 79.2982 51.9265 79.1342 51.9265C79.0404 51.9265 78.9545 51.8914 78.8842 51.8172C78.8217 51.7352 78.767 51.6298 78.7279 51.5049C78.6849 51.3799 78.6654 51.2511 78.6654 51.1144C78.6654 51.0012 78.681 50.8958 78.7123 50.8021C78.7513 50.7084 78.8138 50.6303 78.8998 50.5678C78.9818 50.4975 79.0873 50.4585 79.2123 50.4585C79.3138 50.4585 79.3998 50.4975 79.4623 50.5678C79.5326 50.642 79.5717 50.7318 79.5717 50.8333C79.5717 50.8958 79.5599 50.97 79.5404 51.052C79.517 51.1378 79.4857 51.2198 79.4467 51.3018C79.4974 51.3018 79.5912 51.2784 79.7279 51.2237C79.8724 51.1613 80.0326 51.1066 80.2123 51.052C80.3998 50.9895 80.5873 50.9582 80.7748 50.9582C80.9388 50.9582 81.0717 51.0012 81.1654 51.0832C81.2592 51.1574 81.3138 51.2784 81.3373 51.4424C81.3685 51.5986 81.3451 51.8094 81.2748 52.0671C81.2318 52.2155 81.1732 52.3873 81.1029 52.5825C81.0287 52.7816 80.9506 52.9846 80.8685 53.1916C80.7943 53.4024 80.7201 53.5937 80.6498 53.7694C80.5756 53.949 80.5248 54.0935 80.4935 54.2067C80.431 54.3551 80.4154 54.4488 80.4467 54.4878C80.4779 54.5308 80.5131 54.5503 80.556 54.5503C80.6068 54.5503 80.6576 54.5347 80.7123 54.5035C80.7748 54.4644 80.8373 54.4098 80.8998 54.3473C80.9623 54.2848 81.0248 54.2067 81.0873 54.113C81.1263 54.0623 81.1693 54.031 81.2123 54.0193C81.2513 54.0115 81.306 54.0271 81.3685 54.0662C81.4506 54.1286 81.5013 54.1872 81.5248 54.238C81.5443 54.2926 81.5404 54.3434 81.5092 54.3941C81.4662 54.4683 81.3881 54.5659 81.2748 54.6909C81.1693 54.8158 81.0404 54.9251 80.8842 55.0188C80.7357 55.1125 80.5638 55.1594 80.3685 55.1594Z" fill="#000080"/>
<path d="M83.3512 55.1906C83.0153 55.1906 82.734 55.1204 82.5075 54.9876C82.277 54.8549 82.1051 54.6713 81.9919 54.441C81.8747 54.2028 81.82 53.9334 81.82 53.6289C81.82 53.3478 81.8708 53.051 81.9762 52.7387C82.0778 52.4263 82.2301 52.1296 82.4294 51.8485C82.6247 51.5673 82.8708 51.3448 83.1637 51.1769C83.4645 51.0012 83.82 50.9114 84.2262 50.9114C84.5465 50.9114 84.82 50.9739 85.0387 51.0988C85.2653 51.2237 85.4372 51.4033 85.5544 51.6298C85.6676 51.8485 85.7262 52.11 85.7262 52.4107C85.7262 52.6215 85.695 52.848 85.6325 53.0979C85.5778 53.3478 85.4919 53.5976 85.3669 53.8475C85.2419 54.0974 85.0778 54.3239 84.8825 54.5191C84.695 54.7182 84.4684 54.8783 84.2106 55.0032C83.9606 55.1282 83.6715 55.1906 83.3512 55.1906ZM83.4294 54.5503C83.6872 54.5503 83.9137 54.4839 84.1012 54.3473C84.2965 54.2028 84.4645 54.0271 84.6012 53.8163C84.734 53.5976 84.8356 53.3751 84.8981 53.1447C84.9684 52.9066 85.0075 52.6879 85.0075 52.4888C85.0075 52.2818 84.9684 52.11 84.8981 51.9734C84.8356 51.8289 84.734 51.7235 84.6012 51.661C84.4762 51.5908 84.3278 51.5517 84.1637 51.5517C83.8903 51.5517 83.652 51.622 83.445 51.7547C83.2458 51.8914 83.0778 52.0632 82.945 52.2701C82.8083 52.481 82.7028 52.7035 82.6325 52.9417C82.57 53.1721 82.5387 53.3868 82.5387 53.582C82.5387 53.7929 82.5739 53.9686 82.6481 54.113C82.7184 54.2614 82.82 54.3707 82.945 54.441C83.0778 54.5152 83.2419 54.5503 83.4294 54.5503Z" fill="#000080"/>
<path d="M87.3678 55.1906C87.0944 55.1906 86.8834 55.136 86.7272 55.0345C86.5788 54.9212 86.4772 54.7807 86.4147 54.6128C86.36 54.4371 86.3405 54.2497 86.3522 54.0505C86.3717 53.8436 86.4147 53.6406 86.4772 53.4415L87.0553 51.6923C87.0631 51.6415 87.0592 51.5986 87.0397 51.5673C87.028 51.5283 86.9967 51.5049 86.9459 51.5049C86.8913 51.5049 86.8366 51.5205 86.7741 51.5517C86.7116 51.583 86.6374 51.6415 86.5553 51.7235C86.4694 51.7977 86.3678 51.9031 86.2428 52.0359C86.1803 52.11 86.1178 52.153 86.0553 52.1608C86.0006 52.1725 85.9342 52.1452 85.8522 52.0827C85.7584 52.0124 85.7155 51.9422 85.7272 51.8797C85.7467 51.8172 85.778 51.7626 85.8209 51.7079C85.9342 51.5517 86.0553 51.419 86.1803 51.3018C86.3053 51.1886 86.4381 51.0949 86.5866 51.0207C86.7428 50.9504 86.9186 50.9114 87.1178 50.9114C87.3131 50.9114 87.4616 50.9504 87.5553 51.0207C87.6491 51.0949 87.7038 51.1886 87.7272 51.3018C87.7467 51.4073 87.7467 51.5283 87.7272 51.661C87.7038 51.786 87.6803 51.9031 87.6491 52.0046L87.1803 53.4415C87.1374 53.5664 87.1022 53.6991 87.0709 53.8319C87.0475 53.9568 87.0436 54.0779 87.0553 54.1911C87.0631 54.2965 87.1061 54.3863 87.1803 54.4566C87.2506 54.5191 87.3678 54.5503 87.5241 54.5503C87.6999 54.5503 87.8717 54.4957 88.0397 54.3785C88.2155 54.2653 88.3874 54.113 88.5553 53.9256C88.7194 53.7304 88.86 53.5156 88.9772 53.2853C89.1022 53.0588 89.1999 52.8167 89.2741 52.5669C89.3561 52.317 89.3991 52.0788 89.3991 51.8485C89.3991 51.8094 89.3991 51.7626 89.3991 51.7079C89.3991 51.6571 89.3913 51.5986 89.3834 51.5361C89.3834 51.4658 89.3756 51.3955 89.3678 51.3331C89.3444 51.2394 89.3405 51.1613 89.3522 51.0988C89.3717 51.0363 89.4069 50.9895 89.4616 50.9582C89.5124 50.927 89.5788 50.9114 89.6647 50.9114C89.7663 50.9114 89.8444 50.9426 89.8991 51.0051C89.9616 51.0598 90.0084 51.1535 90.0397 51.2862C90.0475 51.3292 90.0553 51.376 90.0553 51.4268C90.0631 51.4814 90.0709 51.5322 90.0709 51.583C90.0709 51.6376 90.0709 51.6884 90.0709 51.7391C90.0709 52.032 90.0241 52.3326 89.9303 52.645C89.8444 52.9573 89.7194 53.2658 89.5553 53.5664C89.3874 53.8709 89.1881 54.1443 88.9616 54.3941C88.7311 54.6362 88.4811 54.8275 88.2116 54.972C87.9381 55.1165 87.6569 55.1906 87.3678 55.1906Z" fill="#000080"/>
<path d="M90.9803 55.1594C90.6757 55.1594 90.4882 55.0384 90.4178 54.8002C90.3436 54.562 90.3788 54.2184 90.5272 53.7694L91.371 51.1925C91.41 51.091 91.453 51.0207 91.496 50.9895C91.5467 50.9582 91.6249 50.9426 91.7303 50.9426C91.8944 50.9426 91.9999 50.97 92.0428 51.0207C92.0819 51.0754 92.0897 51.1535 92.0585 51.255L91.0897 54.2223C91.0467 54.3278 91.0311 54.4097 91.0428 54.4722C91.0507 54.5269 91.0936 54.5503 91.1678 54.5503C91.2069 54.5503 91.2538 54.5347 91.3085 54.5035C91.3592 54.4722 91.41 54.4254 91.4647 54.3629C91.5272 54.3004 91.5975 54.2184 91.6835 54.113C91.7225 54.0623 91.7655 54.031 91.8085 54.0193C91.8592 54.0115 91.91 54.0271 91.9647 54.0662C92.0467 54.1286 92.0975 54.1872 92.121 54.238C92.1405 54.2926 92.1366 54.3434 92.1053 54.3941C91.9882 54.5737 91.871 54.7182 91.746 54.8314C91.6288 54.9368 91.5038 55.0149 91.371 55.0657C91.246 55.1282 91.1132 55.1594 90.9803 55.1594ZM92.2147 49.7088C92.1092 49.7088 92.0194 49.6776 91.9491 49.6151C91.8749 49.5448 91.8397 49.4433 91.8397 49.3184C91.8397 49.1739 91.8866 49.0373 91.9803 48.9123C92.0741 48.7796 92.2186 48.7093 92.4178 48.7093C92.5194 48.7093 92.6092 48.7483 92.6835 48.8186C92.7655 48.8811 92.8085 48.9826 92.8085 49.1154C92.8085 49.2637 92.7616 49.3965 92.6678 49.5214C92.5741 49.6464 92.4217 49.7088 92.2147 49.7088Z" fill="#000080"/>
<path d="M93.1459 55.175C92.9662 55.175 92.81 55.1282 92.6772 55.0345C92.5405 54.9329 92.435 54.7963 92.3647 54.6284C92.2905 54.4527 92.2553 54.2458 92.2553 54.0037C92.2553 53.7538 92.2905 53.4883 92.3647 53.2072C92.435 52.9261 92.5444 52.6567 92.6928 52.3951C92.849 52.1257 93.0287 51.8797 93.2397 51.661C93.4584 51.4346 93.7006 51.2511 93.974 51.1144C94.2553 50.9817 94.56 50.9114 94.8959 50.9114C95.0522 50.9114 95.2162 50.9348 95.3959 50.9739C95.5717 51.0168 95.7436 51.0793 95.9115 51.1613L97.2084 47.2256C97.2397 47.1124 97.2787 47.0382 97.3334 47.007C97.3842 46.9757 97.4623 46.9601 97.5678 46.9601C97.7319 46.9601 97.8373 46.9875 97.8803 47.0382C97.9311 47.0929 97.935 47.171 97.8959 47.2725L95.599 54.2223C95.5678 54.3278 95.5561 54.4098 95.5678 54.4722C95.5756 54.5269 95.6147 54.5503 95.6772 54.5503C95.728 54.5503 95.7748 54.5347 95.8178 54.5035C95.8686 54.4722 95.9272 54.4254 95.9897 54.3629C96.0522 54.3004 96.1225 54.2184 96.2084 54.113C96.2475 54.0623 96.2905 54.031 96.3334 54.0193C96.3842 54.0115 96.435 54.0271 96.4897 54.0662C96.5717 54.1286 96.6225 54.1872 96.6459 54.238C96.6655 54.2926 96.6615 54.3434 96.6303 54.3941C96.5131 54.5737 96.3959 54.7182 96.2709 54.8314C96.1537 54.9369 96.0287 55.0149 95.8959 55.0657C95.7709 55.1282 95.6342 55.1594 95.4897 55.1594C95.3022 55.1594 95.1537 55.1125 95.0522 55.0188C94.9584 54.9173 94.9037 54.769 94.8959 54.5815C94.8959 54.3941 94.935 54.1599 95.0209 53.8788C95.0209 53.8592 95.0209 53.8436 95.0209 53.8319C95.0287 53.8124 95.0365 53.7929 95.0365 53.7694C94.8178 54.0818 94.5912 54.3434 94.3647 54.5503C94.1459 54.7612 93.9311 54.9173 93.724 55.0188C93.5248 55.1204 93.3334 55.175 93.1459 55.175ZM92.974 53.8788C92.974 54.0037 92.9897 54.1208 93.0209 54.2223C93.0522 54.3278 93.099 54.4058 93.1615 54.4566C93.224 54.5113 93.2944 54.5347 93.3803 54.5347C93.5561 54.5347 93.7631 54.441 94.0053 54.2536C94.2553 54.0584 94.5131 53.7694 94.7865 53.3946C95.0678 53.0198 95.349 52.563 95.6303 52.0202L95.724 51.7079C95.5365 51.6376 95.3647 51.5908 95.2084 51.5673C95.0522 51.5478 94.9115 51.5361 94.7865 51.5361C94.5561 51.5361 94.349 51.5908 94.1615 51.6923C93.974 51.7977 93.8061 51.9383 93.6615 52.114C93.5131 52.2818 93.3881 52.4732 93.2865 52.6918C93.1811 52.9026 93.103 53.1096 93.0522 53.3165C92.9975 53.5156 92.974 53.7031 92.974 53.8788Z" fill="#000080"/>
<path d="M97.5837 55.1594C97.279 55.1594 97.0915 55.0384 97.0212 54.8002C96.947 54.562 96.9821 54.2184 97.1305 53.7694L97.9743 51.1925C98.0134 51.091 98.0563 51.0207 98.0993 50.9895C98.1501 50.9582 98.2282 50.9426 98.3337 50.9426C98.4977 50.9426 98.6032 50.97 98.6462 51.0207C98.6852 51.0754 98.693 51.1535 98.6618 51.255L97.693 54.2223C97.6501 54.3278 97.6345 54.4097 97.6462 54.4722C97.654 54.5269 97.697 54.5503 97.7712 54.5503C97.8102 54.5503 97.8571 54.5347 97.9118 54.5035C97.9626 54.4722 98.0134 54.4254 98.068 54.3629C98.1305 54.3004 98.2009 54.2184 98.2868 54.113C98.3259 54.0623 98.3688 54.031 98.4118 54.0193C98.4626 54.0115 98.5134 54.0271 98.568 54.0662C98.6501 54.1286 98.7009 54.1872 98.7243 54.238C98.7438 54.2926 98.7399 54.3434 98.7087 54.3941C98.5915 54.5737 98.4743 54.7182 98.3493 54.8314C98.2321 54.9368 98.1071 55.0149 97.9743 55.0657C97.8493 55.1282 97.7165 55.1594 97.5837 55.1594ZM98.818 49.7088C98.7126 49.7088 98.6227 49.6776 98.5524 49.6151C98.4782 49.5448 98.443 49.4433 98.443 49.3184C98.443 49.1739 98.4899 49.0373 98.5837 48.9123C98.6774 48.7796 98.822 48.7093 99.0212 48.7093C99.1227 48.7093 99.2126 48.7483 99.2868 48.8186C99.3688 48.8811 99.4118 48.9826 99.4118 49.1154C99.4118 49.2637 99.3649 49.3965 99.2712 49.5214C99.1774 49.6464 99.0251 49.7088 98.818 49.7088Z" fill="#000080"/>
<path d="M99.218 55.1594C99.1321 55.1594 99.054 55.136 98.9836 55.0969C98.9094 55.0657 98.8899 54.9993 98.9211 54.8939L99.968 51.6923C99.9758 51.6415 99.9719 51.5986 99.9524 51.5673C99.9407 51.5283 99.9094 51.5049 99.8586 51.5049C99.804 51.5049 99.7493 51.5205 99.6868 51.5517C99.6243 51.583 99.55 51.6415 99.468 51.7235C99.3821 51.7977 99.2805 51.9031 99.1555 52.0359C99.093 52.11 99.0305 52.153 98.968 52.1608C98.9133 52.1725 98.8469 52.1452 98.7649 52.0827C98.6711 52.0124 98.6282 51.9422 98.6399 51.8797C98.6594 51.8172 98.6907 51.7626 98.7336 51.7079C98.8469 51.5517 98.968 51.419 99.093 51.3018C99.218 51.1886 99.3508 51.0949 99.4993 51.0207C99.6555 50.9504 99.8313 50.9114 100.031 50.9114C100.226 50.9114 100.374 50.9504 100.468 51.0207C100.562 51.0949 100.616 51.1886 100.64 51.3018C100.659 51.4073 100.659 51.5283 100.64 51.661C100.616 51.786 100.593 51.9031 100.562 52.0046L100.406 52.4888C100.562 52.2311 100.722 52.0046 100.89 51.8172C101.066 51.622 101.241 51.4541 101.421 51.3175C101.597 51.1847 101.773 51.0832 101.952 51.0207C102.14 50.9504 102.32 50.9114 102.499 50.9114C102.738 50.9114 102.925 50.9739 103.062 51.0988C103.195 51.2159 103.269 51.3916 103.281 51.6298C103.3 51.8602 103.253 52.1452 103.14 52.4888L102.531 54.2067C102.499 54.3121 102.484 54.3902 102.484 54.441C102.484 54.4839 102.491 54.5152 102.515 54.5347C102.534 54.5464 102.562 54.5503 102.593 54.5503C102.644 54.5503 102.695 54.5347 102.749 54.5035C102.8 54.4644 102.859 54.4098 102.921 54.3473C102.991 54.2848 103.066 54.2067 103.14 54.113C103.179 54.0623 103.222 54.031 103.265 54.0193C103.304 54.0115 103.359 54.0271 103.421 54.0662C103.503 54.1286 103.554 54.1872 103.577 54.238C103.597 54.2926 103.593 54.3434 103.562 54.3941C103.507 54.4683 103.429 54.5659 103.327 54.6909C103.222 54.8158 103.093 54.9251 102.937 55.0188C102.788 55.1125 102.616 55.1594 102.421 55.1594C102.234 55.1594 102.093 55.1165 101.999 55.0345C101.906 54.9408 101.847 54.8275 101.827 54.6909C101.816 54.5581 101.82 54.4176 101.843 54.2692C101.874 54.1247 101.909 53.9881 101.952 53.8631L102.499 52.3014C102.55 52.1686 102.581 52.0437 102.593 51.9265C102.601 51.8133 102.581 51.7235 102.531 51.661C102.476 51.5908 102.378 51.5517 102.234 51.5517C102.054 51.5517 101.859 51.6298 101.64 51.786C101.429 51.9344 101.21 52.1452 100.984 52.4263C100.765 52.6996 100.538 53.0276 100.312 53.4102C100.093 53.785 99.8899 54.2028 99.7024 54.6596L99.6086 54.9408C99.5852 55.0149 99.5461 55.0657 99.4836 55.0969C99.429 55.136 99.343 55.1594 99.218 55.1594Z" fill="#000080"/>
<path d="M106.519 54.972C106.632 54.9017 106.742 54.8314 106.847 54.769C106.949 54.7065 107.05 54.644 107.144 54.5815C107.246 54.5113 107.347 54.4527 107.441 54.4098C107.535 54.359 107.621 54.3121 107.707 54.2692C107.777 54.2301 107.839 54.2301 107.894 54.2692C107.945 54.3004 107.976 54.359 107.988 54.441C108.007 54.5152 108.007 54.5894 107.988 54.6596C107.976 54.7338 107.941 54.7807 107.879 54.8002C107.773 54.8549 107.66 54.9173 107.535 54.9876C107.418 55.0579 107.3 55.1321 107.175 55.2063C107.05 55.2765 106.925 55.3546 106.8 55.4405C106.675 55.5225 106.55 55.6045 106.425 55.6904L106.519 54.972ZM104.191 59.1575C104.011 59.1575 103.851 59.1185 103.707 59.0482C103.558 58.974 103.449 58.8686 103.363 58.7358C103.281 58.6109 103.238 58.4703 103.238 58.3142C103.238 58.1268 103.277 57.9393 103.347 57.7519C103.422 57.5723 103.523 57.3927 103.66 57.2053C103.793 57.0257 103.964 56.8383 104.175 56.6431C104.394 56.444 104.636 56.2409 104.91 56.034C105.043 55.9286 105.175 55.831 105.3 55.7373C105.425 55.6514 105.55 55.5655 105.675 55.4718C105.808 55.3859 105.945 55.3039 106.082 55.2219L106.55 53.7382C106.332 54.0623 106.105 54.3317 105.879 54.5503C105.648 54.7611 105.429 54.9173 105.222 55.0188C105.023 55.1204 104.832 55.175 104.644 55.175C104.464 55.175 104.308 55.1282 104.175 55.0345C104.039 54.9329 103.933 54.7963 103.863 54.6284C103.789 54.4527 103.754 54.2458 103.754 54.0037C103.754 53.7538 103.789 53.4883 103.863 53.2072C103.933 52.9261 104.043 52.6567 104.191 52.3951C104.347 52.1257 104.527 51.8797 104.738 51.661C104.945 51.4346 105.191 51.2511 105.472 51.1144C105.754 50.9817 106.058 50.9114 106.394 50.9114C106.496 50.9114 106.601 50.9231 106.707 50.9426C106.82 50.9543 106.933 50.9817 107.05 51.0207C107.175 51.0637 107.289 51.1105 107.394 51.1613L107.41 51.1144C107.441 51.0441 107.48 50.9973 107.535 50.9739C107.586 50.9543 107.652 50.9426 107.738 50.9426C107.902 50.9426 108.007 50.97 108.05 51.0207C108.101 51.0754 108.105 51.1535 108.066 51.255L106.191 57.0179C106.054 57.4005 105.918 57.7285 105.785 58.0018C105.66 58.2712 105.519 58.4899 105.363 58.6578C105.207 58.8335 105.027 58.9584 104.832 59.0326C104.644 59.1146 104.429 59.1575 104.191 59.1575ZM104.316 58.5484C104.441 58.5484 104.558 58.5094 104.675 58.4391C104.789 58.3649 104.894 58.2595 104.988 58.1268C105.082 58.0018 105.168 57.8378 105.254 57.6426C105.347 57.4552 105.429 57.2366 105.504 56.9867L105.8 56.0965C105.726 56.1355 105.652 56.1824 105.582 56.237C105.507 56.2878 105.433 56.3385 105.363 56.3932C105.289 56.4557 105.211 56.5103 105.129 56.565C104.918 56.7407 104.738 56.9008 104.582 57.0491C104.433 57.2053 104.316 57.3459 104.222 57.4708C104.129 57.6036 104.058 57.7285 104.019 57.8456C103.976 57.9706 103.957 58.0877 103.957 58.2048C103.957 58.2673 103.964 58.322 103.988 58.3766C104.019 58.4274 104.058 58.4703 104.113 58.5016C104.164 58.5328 104.23 58.5484 104.316 58.5484ZM104.879 54.5347C105.054 54.5347 105.261 54.441 105.504 54.2536C105.754 54.0584 106.011 53.7772 106.285 53.4102C106.554 53.0354 106.832 52.5786 107.113 52.0359L107.222 51.7079C107.035 51.6376 106.863 51.5908 106.707 51.5673C106.55 51.5478 106.41 51.5361 106.285 51.5361C106.054 51.5361 105.847 51.5908 105.66 51.6923C105.472 51.7977 105.304 51.9383 105.16 52.114C105.011 52.2818 104.886 52.4732 104.785 52.6918C104.679 52.9026 104.601 53.1096 104.55 53.3165C104.496 53.5156 104.472 53.7031 104.472 53.8788C104.472 54.0037 104.488 54.1208 104.519 54.2223C104.55 54.3278 104.597 54.4058 104.66 54.4566C104.722 54.5113 104.793 54.5347 104.879 54.5347Z" fill="#000080"/>
<path d="M111.393 55.175C111.194 55.175 111.011 55.1282 110.847 55.0345C110.679 54.9525 110.542 54.8392 110.44 54.6909C110.347 54.5347 110.3 54.3707 110.3 54.1911C110.3 54.0271 110.335 53.8748 110.409 53.7382C110.479 53.6054 110.585 53.5 110.722 53.4258C110.866 53.3438 111.05 53.3009 111.268 53.3009C111.495 53.3009 111.722 53.3282 111.94 53.379C112.159 53.4336 112.366 53.5039 112.565 53.5976C112.772 53.6913 112.975 53.7929 113.175 53.8944C113.382 53.9881 113.585 54.0818 113.784 54.1755C113.979 54.2614 114.179 54.3317 114.378 54.3941C114.573 54.4488 114.784 54.4722 115.003 54.4722C115.261 54.4722 115.522 54.4215 115.784 54.316C116.054 54.2028 116.307 54.0505 116.55 53.8631C116.8 53.6679 117.026 53.4376 117.237 53.176C117.456 52.9183 117.643 52.6371 117.8 52.3326C117.956 52.032 118.073 51.7196 118.159 51.3955C118.253 51.0637 118.3 50.7357 118.3 50.4116C118.3 49.9548 118.225 49.5527 118.081 49.2091C117.944 48.8577 117.745 48.5648 117.487 48.3345C117.237 48.108 116.932 47.9362 116.581 47.8191C116.225 47.7059 115.835 47.6473 115.409 47.6473C115.116 47.6473 114.839 47.6707 114.581 47.7098C114.331 47.741 114.097 47.7996 113.878 47.8816C113.659 47.9675 113.456 48.0651 113.268 48.1783C113.081 48.2954 112.909 48.4282 112.753 48.5844C112.604 48.7405 112.475 48.924 112.362 49.131C112.319 49.2169 112.261 49.2637 112.19 49.2715C112.128 49.2715 112.05 49.252 111.956 49.2091C111.882 49.17 111.831 49.1232 111.8 49.0685C111.776 49.006 111.788 48.9397 111.831 48.8655C111.956 48.6156 112.104 48.393 112.284 48.1939C112.472 47.987 112.679 47.8113 112.909 47.6629C113.147 47.5067 113.401 47.3818 113.675 47.2881C113.956 47.1866 114.253 47.1085 114.565 47.0538C114.878 46.9914 115.198 46.9601 115.534 46.9601C116.042 46.9601 116.511 47.0382 116.94 47.1944C117.366 47.3428 117.737 47.5614 118.05 47.8503C118.362 48.1314 118.6 48.4867 118.768 48.9123C118.944 49.3301 119.034 49.8143 119.034 50.3648C119.034 50.763 118.979 51.1574 118.878 51.5517C118.772 51.9383 118.628 52.3092 118.44 52.6606C118.261 53.0159 118.042 53.3438 117.784 53.6445C117.534 53.9373 117.257 54.1989 116.956 54.4254C116.651 54.644 116.331 54.8158 115.987 54.9408C115.651 55.0657 115.307 55.1282 114.956 55.1282C114.682 55.1282 114.413 55.0891 114.143 55.0188C113.87 54.9369 113.604 54.8392 113.347 54.7221C113.097 54.5972 112.85 54.48 112.612 54.3629C112.382 54.238 112.159 54.1364 111.94 54.0505C111.729 53.9686 111.538 53.9256 111.362 53.9256C111.245 53.9256 111.163 53.9529 111.112 54.0037C111.057 54.0584 111.034 54.1247 111.034 54.2067C111.034 54.3239 111.081 54.4058 111.175 54.4566C111.268 54.5113 111.362 54.5347 111.456 54.5347C111.62 54.5347 111.753 54.5035 111.847 54.441C111.94 54.3785 112.022 54.2692 112.097 54.113C112.179 53.9568 112.257 53.746 112.331 53.4727L113.893 48.6468C113.925 48.5766 113.972 48.5219 114.034 48.4907C114.097 48.4516 114.182 48.4282 114.3 48.4282C114.425 48.4282 114.511 48.4516 114.565 48.4907C114.616 48.5336 114.632 48.5922 114.612 48.6624L113.034 53.5508C112.909 53.9568 112.768 54.2809 112.612 54.5191C112.464 54.7494 112.292 54.9173 112.097 55.0188C111.909 55.1204 111.675 55.175 111.393 55.175Z" fill="#000080"/>
<path d="M117.101 55.175C116.999 55.175 116.929 55.1438 116.898 55.0813C116.867 55.0188 116.863 54.9525 116.882 54.8783C116.894 54.7963 116.929 54.7221 116.992 54.6596C117.054 54.5972 117.14 54.5659 117.242 54.5659C117.421 54.5659 117.613 54.5152 117.82 54.4098C118.019 54.2965 118.234 54.1208 118.46 53.8788C118.687 53.6406 118.929 53.3282 119.179 52.9417C119.437 52.5591 119.714 52.0905 120.007 51.5361L120.445 51.7547C120.12 52.3912 119.82 52.9261 119.538 53.3634C119.257 53.8007 118.98 54.156 118.71 54.4254C118.452 54.687 118.191 54.8783 117.929 55.0032C117.66 55.1165 117.382 55.175 117.101 55.175ZM121.554 55.1594C121.367 55.1594 121.218 55.1165 121.117 55.0345C121.023 54.9642 120.964 54.8705 120.945 54.7533C120.921 54.6284 120.921 54.5035 120.945 54.3785C120.964 54.2536 120.995 54.1403 121.038 54.0349C121.07 53.9529 121.117 53.8319 121.179 53.6757C121.242 53.5195 121.308 53.3478 121.382 53.1603C121.452 52.9651 121.527 52.7699 121.601 52.5825C121.671 52.3873 121.734 52.2077 121.788 52.0515C121.827 51.8953 121.835 51.786 121.804 51.7235C121.781 51.661 121.714 51.6298 121.601 51.6298C121.484 51.6298 121.355 51.6571 121.21 51.7079C121.074 51.7626 120.933 51.8133 120.788 51.8641C120.64 51.907 120.484 51.9265 120.32 51.9265C120.226 51.9265 120.14 51.8914 120.07 51.8172C120.007 51.7352 119.952 51.6298 119.913 51.5049C119.87 51.3799 119.851 51.2511 119.851 51.1144C119.851 51.0012 119.867 50.8958 119.898 50.8021C119.937 50.7084 119.999 50.6303 120.085 50.5678C120.167 50.4975 120.273 50.4585 120.398 50.4585C120.499 50.4585 120.585 50.4975 120.648 50.5678C120.718 50.642 120.757 50.7318 120.757 50.8333C120.757 50.8958 120.745 50.97 120.726 51.052C120.702 51.1378 120.671 51.2198 120.632 51.3018C120.683 51.3018 120.777 51.2784 120.913 51.2237C121.058 51.1613 121.218 51.1066 121.398 51.052C121.585 50.9895 121.773 50.9582 121.96 50.9582C122.124 50.9582 122.257 51.0012 122.351 51.0832C122.445 51.1574 122.499 51.2784 122.523 51.4424C122.554 51.5986 122.531 51.8094 122.46 52.0671C122.417 52.2155 122.359 52.3873 122.288 52.5825C122.214 52.7816 122.136 52.9846 122.054 53.1916C121.98 53.4024 121.906 53.5937 121.835 53.7694C121.761 53.949 121.71 54.0935 121.679 54.2067C121.617 54.3551 121.601 54.4488 121.632 54.4878C121.663 54.5308 121.699 54.5503 121.742 54.5503C121.792 54.5503 121.843 54.5347 121.898 54.5035C121.96 54.4644 122.023 54.4098 122.085 54.3473C122.148 54.2848 122.21 54.2067 122.273 54.113C122.312 54.0623 122.355 54.031 122.398 54.0193C122.437 54.0115 122.492 54.0271 122.554 54.0662C122.636 54.1286 122.687 54.1872 122.71 54.238C122.73 54.2926 122.726 54.3434 122.695 54.3941C122.652 54.4683 122.574 54.5659 122.46 54.6909C122.355 54.8158 122.226 54.9251 122.07 55.0188C121.921 55.1125 121.749 55.1594 121.554 55.1594Z" fill="#000080"/>
<path d="M124.459 55.175C124.259 55.175 124.084 55.1438 123.927 55.0813C123.771 55.0188 123.634 54.9368 123.521 54.8314C123.404 54.7299 123.306 54.605 123.224 54.4566C123.15 54.3121 123.091 54.156 123.052 53.9881C123.009 53.8124 122.99 53.6367 122.99 53.4571C122.99 53.2619 123.009 53.0471 123.052 52.8167C123.103 52.5903 123.17 52.3638 123.255 52.1452C123.349 51.9187 123.466 51.7079 123.615 51.5205C123.771 51.3331 123.951 51.1886 124.162 51.0832C124.369 50.97 124.607 50.9114 124.88 50.9114C125.037 50.9114 125.181 50.9504 125.318 51.0207C125.451 51.0832 125.556 51.1769 125.63 51.3018C125.713 51.419 125.755 51.5634 125.755 51.7391C125.755 51.9812 125.677 52.235 125.521 52.5044C125.373 52.766 125.177 53.0276 124.927 53.2853C124.677 53.5352 124.396 53.7694 124.084 53.9881C123.779 54.2184 123.463 54.4215 123.13 54.5972C122.795 54.7768 122.482 54.9173 122.177 55.0188C121.865 55.1204 121.595 55.175 121.365 55.175C121.295 55.175 121.24 55.1438 121.209 55.0813C121.17 55.0188 121.154 54.9525 121.162 54.8783C121.162 54.7963 121.193 54.7221 121.255 54.6596C121.318 54.5972 121.404 54.5659 121.505 54.5659C121.685 54.5659 121.896 54.5269 122.146 54.441C122.396 54.3473 122.662 54.2223 122.943 54.0662C123.224 53.9022 123.494 53.7187 123.755 53.5195C123.994 53.3438 124.209 53.1681 124.396 52.9885C124.591 52.8011 124.748 52.6215 124.865 52.4419C124.978 52.2545 125.037 52.0827 125.037 51.9265C125.037 51.8133 125.009 51.7235 124.959 51.661C124.904 51.5908 124.822 51.5517 124.709 51.5517C124.552 51.5517 124.404 51.6142 124.271 51.7391C124.146 51.8641 124.037 52.0281 123.943 52.2233C123.857 52.4224 123.795 52.6293 123.755 52.848C123.713 53.0666 123.693 53.2658 123.693 53.4415C123.693 53.5898 123.709 53.7304 123.74 53.8631C123.779 53.9881 123.838 54.1052 123.912 54.2067C123.994 54.3121 124.088 54.3941 124.193 54.4566C124.306 54.5113 124.443 54.5347 124.599 54.5347C124.763 54.5347 124.927 54.4996 125.084 54.4254C125.24 54.3551 125.388 54.2614 125.537 54.1443C125.681 54.0193 125.818 53.8905 125.943 53.7538C126.005 53.6835 126.076 53.6562 126.162 53.6757C126.255 53.6991 126.326 53.7382 126.38 53.8007C126.431 53.8553 126.459 53.91 126.459 53.9725C126.466 54.0349 126.443 54.1091 126.38 54.1911C126.181 54.441 125.974 54.6401 125.755 54.7846C125.545 54.9212 125.326 55.0188 125.099 55.0813C124.88 55.1438 124.666 55.175 124.459 55.175Z" fill="#000080"/>
<path d="M126.878 55.175C126.698 55.175 126.542 55.1282 126.409 55.0345C126.272 54.9329 126.167 54.7963 126.097 54.6284C126.022 54.4527 125.987 54.2458 125.987 54.0037C125.987 53.7538 126.022 53.4883 126.097 53.2072C126.167 52.9261 126.276 52.6567 126.425 52.3951C126.581 52.1257 126.761 51.8797 126.972 51.661C127.19 51.4346 127.433 51.2511 127.706 51.1144C127.987 50.9817 128.292 50.9114 128.628 50.9114C128.784 50.9114 128.944 50.9348 129.112 50.9739C129.276 51.0051 129.44 51.0637 129.597 51.1457L129.612 51.1144C129.632 51.0324 129.667 50.9856 129.722 50.9739C129.784 50.9543 129.854 50.9426 129.94 50.9426C130.104 50.9426 130.21 50.97 130.253 51.0207C130.304 51.0754 130.308 51.1535 130.268 51.255L129.284 54.2223C129.241 54.316 129.222 54.3902 129.222 54.441C129.222 54.4839 129.229 54.5152 129.253 54.5347C129.272 54.5464 129.3 54.5503 129.331 54.5503C129.382 54.5503 129.433 54.5347 129.487 54.5035C129.538 54.4644 129.597 54.4098 129.659 54.3473C129.729 54.2848 129.804 54.2067 129.878 54.113C129.917 54.0623 129.96 54.031 130.003 54.0193C130.042 54.0115 130.097 54.0271 130.159 54.0662C130.241 54.1286 130.292 54.1872 130.315 54.238C130.335 54.2926 130.331 54.3434 130.3 54.3941C130.257 54.4683 130.179 54.5659 130.065 54.6909C129.96 54.8158 129.831 54.9251 129.675 55.0188C129.526 55.1125 129.354 55.1594 129.159 55.1594C128.972 55.1594 128.831 55.1165 128.737 55.0345C128.643 54.9408 128.585 54.8275 128.565 54.6909C128.554 54.5581 128.558 54.4176 128.581 54.2692C128.612 54.1247 128.647 53.9881 128.69 53.8631C128.698 53.8553 128.706 53.8436 128.706 53.8319C128.714 53.8124 128.722 53.7968 128.722 53.785C128.503 54.0974 128.284 54.359 128.065 54.5659C127.854 54.7651 127.651 54.9173 127.456 55.0188C127.257 55.1204 127.065 55.175 126.878 55.175ZM126.706 53.8788C126.706 54.0037 126.722 54.1208 126.753 54.2223C126.784 54.3278 126.831 54.4058 126.893 54.4566C126.956 54.5113 127.026 54.5347 127.112 54.5347C127.288 54.5347 127.495 54.4371 127.737 54.238C127.975 54.0427 128.229 53.7499 128.503 53.3634C128.772 52.9807 129.05 52.5161 129.331 51.9734L129.409 51.7079C129.241 51.6376 129.081 51.5908 128.925 51.5673C128.776 51.5478 128.643 51.5361 128.518 51.5361C128.288 51.5361 128.081 51.5908 127.893 51.6923C127.706 51.7977 127.538 51.9383 127.393 52.114C127.245 52.2818 127.12 52.4732 127.018 52.6918C126.913 52.9026 126.835 53.1096 126.784 53.3165C126.729 53.5156 126.706 53.7031 126.706 53.8788Z" fill="#000080"/>
<path d="M130.852 55.1594C130.766 55.1594 130.688 55.136 130.618 55.0969C130.544 55.0657 130.524 54.9993 130.555 54.8939L131.602 51.6923C131.61 51.6415 131.606 51.5986 131.586 51.5673C131.575 51.5283 131.544 51.5049 131.493 51.5049C131.438 51.5049 131.383 51.5205 131.321 51.5517C131.258 51.583 131.184 51.6415 131.102 51.7235C131.016 51.7977 130.915 51.9031 130.79 52.0359C130.727 52.11 130.665 52.153 130.602 52.1608C130.547 52.1725 130.481 52.1452 130.399 52.0827C130.305 52.0124 130.262 51.9422 130.274 51.8797C130.294 51.8172 130.325 51.7626 130.368 51.7079C130.481 51.5517 130.602 51.419 130.727 51.3018C130.852 51.1886 130.985 51.0949 131.133 51.0207C131.29 50.9504 131.465 50.9114 131.665 50.9114C131.86 50.9114 132.008 50.9504 132.102 51.0207C132.196 51.0949 132.251 51.1886 132.274 51.3018C132.294 51.4073 132.294 51.5283 132.274 51.661C132.251 51.786 132.227 51.9031 132.196 52.0046L132.055 52.4419C132.2 52.192 132.352 51.9734 132.508 51.786C132.672 51.5908 132.84 51.4268 133.008 51.3018C133.172 51.1769 133.34 51.0832 133.508 51.0207C133.684 50.9504 133.856 50.9114 134.024 50.9114C134.305 50.9114 134.508 50.9817 134.633 51.1144C134.758 51.2511 134.821 51.4385 134.821 51.6767C134.821 51.9187 134.766 52.1881 134.665 52.4888L133.852 54.9408C133.829 55.0149 133.79 55.0657 133.727 55.0969C133.672 55.136 133.59 55.1594 133.477 55.1594C133.391 55.1594 133.309 55.136 133.227 55.0969C133.153 55.0657 133.137 54.9993 133.18 54.8939L134.024 52.3014C134.075 52.1686 134.106 52.0437 134.118 51.9265C134.126 51.8133 134.106 51.7235 134.055 51.661C134.012 51.5908 133.919 51.5517 133.774 51.5517C133.606 51.5517 133.419 51.6298 133.211 51.786C133.012 51.9344 132.805 52.1452 132.586 52.4263C132.368 52.7074 132.149 53.0354 131.93 53.4102C131.719 53.785 131.524 54.2028 131.336 54.6596L131.243 54.9408C131.219 55.0149 131.18 55.0657 131.118 55.0969C131.063 55.136 130.977 55.1594 130.852 55.1594ZM136.586 55.1594C136.387 55.1594 136.243 55.1165 136.149 55.0345C136.055 54.9408 135.997 54.8275 135.977 54.6909C135.965 54.5581 135.977 54.4176 136.008 54.2692C136.04 54.1247 136.075 53.9881 136.118 53.8631L136.649 52.3014C136.7 52.1686 136.731 52.0437 136.743 51.9265C136.751 51.8133 136.731 51.7235 136.68 51.661C136.637 51.5908 136.544 51.5517 136.399 51.5517C136.219 51.5517 136.028 51.6298 135.821 51.786C135.61 51.9422 135.399 52.1686 135.18 52.4575C134.961 52.7504 134.743 53.0901 134.524 53.4727C134.313 53.8592 134.11 54.2848 133.915 54.7533H133.602C133.809 54.1521 134.032 53.6133 134.274 53.1447C134.512 52.6762 134.762 52.2779 135.024 51.9422C135.282 51.5986 135.547 51.3448 135.821 51.1769C136.102 51.0012 136.376 50.9114 136.649 50.9114C136.93 50.9114 137.133 50.9817 137.258 51.1144C137.383 51.2511 137.446 51.4385 137.446 51.6767C137.446 51.9187 137.391 52.1881 137.29 52.4888L136.696 54.2067C136.665 54.3121 136.641 54.3902 136.633 54.441C136.633 54.4839 136.641 54.5152 136.665 54.5347C136.684 54.5464 136.711 54.5503 136.743 54.5503C136.794 54.5503 136.844 54.5347 136.899 54.5035C136.961 54.4644 137.024 54.4098 137.086 54.3473C137.149 54.2848 137.219 54.2067 137.305 54.113C137.344 54.0623 137.387 54.031 137.43 54.0193C137.469 54.0115 137.516 54.0271 137.571 54.0662C137.665 54.1286 137.719 54.1872 137.743 54.238C137.762 54.2926 137.751 54.3434 137.711 54.3941C137.669 54.4683 137.594 54.5659 137.493 54.6909C137.387 54.8158 137.258 54.9251 137.102 55.0188C136.946 55.1125 136.774 55.1594 136.586 55.1594Z" fill="#000080"/>
<path d="M136.196 55.175C136.094 55.175 136.024 55.1438 135.993 55.0813C135.961 55.0188 135.958 54.9525 135.977 54.8783C135.989 54.7963 136.024 54.7221 136.086 54.6596C136.149 54.5972 136.235 54.5659 136.336 54.5659C136.504 54.5659 136.688 54.5113 136.883 54.3941C137.083 54.2692 137.305 54.074 137.555 53.8007C137.805 53.5313 138.086 53.1721 138.399 52.723C138.719 52.2662 139.094 51.704 139.524 51.0363L139.915 51.255C139.485 51.9851 139.106 52.6059 138.774 53.1135C138.438 53.6133 138.125 54.0154 137.836 54.316C137.555 54.6206 137.286 54.8392 137.024 54.972C136.754 55.1047 136.477 55.175 136.196 55.175ZM139.352 55.1906C139.09 55.1906 138.856 55.1477 138.649 55.0657C138.438 54.9837 138.293 54.9017 138.211 54.8158C138.137 54.7338 138.102 54.6596 138.102 54.5972C138.11 54.5347 138.149 54.4722 138.211 54.4098C138.274 54.3473 138.329 54.3239 138.383 54.3317C138.434 54.3317 138.5 54.359 138.586 54.4098C138.68 54.4722 138.79 54.5308 138.915 54.5815C139.04 54.6245 139.168 54.644 139.305 54.644C139.586 54.644 139.797 54.5776 139.946 54.441C140.102 54.3082 140.18 54.1247 140.18 53.8944C140.18 53.7616 140.157 53.625 140.118 53.4883C140.075 53.3556 140.016 53.2189 139.946 53.0823C139.883 52.9495 139.813 52.8089 139.743 52.6606C139.668 52.5161 139.594 52.3716 139.524 52.2233C139.461 52.0671 139.403 51.907 139.352 51.7391C139.309 51.5634 139.29 51.3877 139.29 51.2081C139.29 50.927 139.352 50.7318 139.477 50.6147C139.61 50.4897 139.75 50.4272 139.899 50.4272C140.024 50.4272 140.118 50.4663 140.18 50.5366C140.243 50.599 140.274 50.6849 140.274 50.7865C140.274 50.8919 140.231 51.0051 140.149 51.13C140.075 51.2472 139.993 51.3565 139.899 51.458C139.899 51.5947 139.918 51.7235 139.961 51.8485C140.012 51.9734 140.075 52.1061 140.149 52.2389C140.219 52.3638 140.297 52.4966 140.383 52.6293C140.465 52.7543 140.543 52.8909 140.618 53.0354C140.7 53.1721 140.762 53.3126 140.805 53.4571C140.856 53.6054 140.883 53.7538 140.883 53.91C140.883 54.2965 140.743 54.6089 140.461 54.847C140.188 55.0735 139.821 55.1906 139.352 55.1906Z" fill="#000080"/>
<path d="M11.3973 53.5194H69.5067" stroke="#FBBC05" stroke-width="2.96725"/>
<mask id="mask2_1_3" style="mask-type:luminance" maskUnits="userSpaceOnUse" x="11" y="38" width="29" height="11">
<path d="M11 38.6272H39.0273V48.8217H11V38.6272Z" fill="white"/>
</mask>
<g mask="url(#mask2_1_3)">
<path fill-rule="evenodd" clip-rule="evenodd" d="M10.9961 47.5215C11.7578 48.6967 13.3281 49.0325 14.5078 48.2712C18.1055 45.9441 24.9961 41.4892 24.9961 41.4892C24.9961 41.4892 31.8906 45.9441 35.4883 48.2712C36.6641 49.0325 38.2383 48.6967 39 47.5215L25.6875 38.9123C25.2656 38.639 24.7266 38.639 24.3086 38.9123L10.9961 47.5215Z" fill="#FBBC05"/>
</g>
<path d="M25.2539 53.2883V48.2048" stroke="#FBBC05" stroke-width="2.97973" stroke-linecap="round"/>
</svg>
