<svg class="hidden" xmlns="http://www.w3.org/2000/svg">
  <symbol id="box" viewBox="0 0 16 16">
    <path
      d="M3 4.25c0-.69.56-1.25 1.25-1.25h2a.75.75 0 0 0 0-1.5h-2a2.75 2.75 0 0 0-2.75 2.75v2a.75.75 0 0 0 1.5 0z"></path>
    <path
      d="M11.75 3c.69 0 1.25.56 1.25 1.25v2a.75.75 0 0 0 1.5 0v-2a2.75 2.75 0 0 0-2.75-2.75h-2a.75.75 0 0 0 0 1.5z"
    ></path>
    <path
      d="M11.75 13c.69 0 1.25-.56 1.25-1.25v-2a.75.75 0 0 1 1.5 0v2a2.75 2.75 0 0 1-2.75 2.75h-2a.75.75 0 0 1 0-1.5z"
    ></path>
    <path
      d="M4.25 13c-.69 0-1.25-.56-1.25-1.25v-2a.75.75 0 0 0-1.5 0v2a2.75 2.75 0 0 0 2.75 2.75h2a.75.75 0 0 0 0-1.5z"
    ></path>
  </symbol>
  <symbol id="back-arrow" viewBox="0 0 24 24" fill="none">
    <path
      d="M4 12H20M4 12L8 8M4 12L8 16"
      stroke="currentColor"
      stroke-width="2"
      stroke-linecap="round"
      stroke-linejoin="round"
    ></path>
  </symbol>
  <symbol
    id="icon-apps"
    viewBox="0 0 24 24"
    fill="none"
    stroke="currentColor"
    stroke-width="2"
    stroke-linecap="round"
    stroke-linejoin="round"
  >
    <rect x="3" y="3" width="7" height="7" rx="2" />
    <rect x="14" y="3" width="7" height="7" rx="2" />
    <rect x="14" y="14" width="7" height="7" rx="2" />
    <rect x="3" y="14" width="7" height="7" rx="2" />
  </symbol>
  <symbol id="down-chevron" viewBox="0 0 24 24" fill="none">
    <path
      d="M19 9L14 14.1599C13.7429 14.4323 13.4329 14.6493 13.089 14.7976C12.7451 14.9459 12.3745 15.0225 12 15.0225C11.6255 15.0225 11.2549 14.9459 10.9109 14.7976C10.567 14.6493 10.2571 14.4323 10 14.1599L5 9"
      stroke="#000000" stroke-width="1.5" stroke-linecap="round" stroke-linejoin="round" />
  </symbol>
  <symbol id="xxyy" viewBox="0 0 24 24" fill="none">
    <path d="M7 10L12 15L17 10" stroke="#000000" stroke-width="1.5" stroke-linecap="round"
      stroke-linejoin="round" />
  </symbol>
  <symbol id="bag" viewBox="0 -0.5 25 25" fill="none">
    <g id="SVGRepo_bgCarrier" stroke-width="0"></g>
    <g id="SVGRepo_tracerCarrier" stroke-linecap="round" stroke-linejoin="round"></g>
    <g id="SVGRepo_iconCarrier">
      <path fill-rule="evenodd" clip-rule="evenodd"
        d="M5.50035 9.3C5.487 8.31988 6.27024 7.51426 7.25035 7.5H17.7503C18.7305 7.51426 19.5137 8.31988 19.5004 9.3V17.4C19.5276 19.3605 17.9608 20.972 16.0004 21H9.00035C7.03989 20.972 5.4731 19.3605 5.50035 17.4V9.3Z"
        stroke="#000000" stroke-width="1.5" stroke-linecap="round" stroke-linejoin="round"></path>
      <path
        d="M16.0004 10.2V6.6C16.0276 4.63953 14.4608 3.02797 12.5004 3C10.5399 3.02797 8.9731 4.63953 9.00035 6.6V10.2"
        stroke="#000000" stroke-width="1.5" stroke-linecap="round" stroke-linejoin="round"></path>
    </g>
  </symbol>
</svg>