<svg class="hidden" xmlns="http://www.w3.org/2000/svg">
  <symbol id="box" viewBox="0 0 16 16">
    <path
      d="M3 4.25c0-.69.56-1.25 1.25-1.25h2a.75.75 0 0 0 0-1.5h-2a2.75 2.75 0 0 0-2.75 2.75v2a.75.75 0 0 0 1.5 0z"></path>
    <path
      d="M11.75 3c.69 0 1.25.56 1.25 1.25v2a.75.75 0 0 0 1.5 0v-2a2.75 2.75 0 0 0-2.75-2.75h-2a.75.75 0 0 0 0 1.5z"
    ></path>
    <path
      d="M11.75 13c.69 0 1.25-.56 1.25-1.25v-2a.75.75 0 0 1 1.5 0v2a2.75 2.75 0 0 1-2.75 2.75h-2a.75.75 0 0 1 0-1.5z"
    ></path>
    <path
      d="M4.25 13c-.69 0-1.25-.56-1.25-1.25v-2a.75.75 0 0 0-1.5 0v2a2.75 2.75 0 0 0 2.75 2.75h2a.75.75 0 0 0 0-1.5z"
    ></path>
  </symbol>
  <symbol id="back-arrow" viewBox="0 0 24 24" fill="none">
    <path
      d="M4 12H20M4 12L8 8M4 12L8 16"
      stroke="currentColor"
      stroke-width="2"
      stroke-linecap="round"
      stroke-linejoin="round"
    ></path>
  </symbol>
  <symbol
    id="icon-apps"
    viewBox="0 0 24 24"
    fill="none"
    stroke="currentColor"
    stroke-width="2"
    stroke-linecap="round"
    stroke-linejoin="round"
  >
    <rect x="3" y="3" width="7" height="7" rx="2" />
    <rect x="14" y="3" width="7" height="7" rx="2" />
    <rect x="14" y="14" width="7" height="7" rx="2" />
    <rect x="3" y="14" width="7" height="7" rx="2" />
  </symbol>
</svg>